<?xml version="1.0" standalone="no"?>
<!DOCTYPE svg PUBLIC "-//W3C//DTD SVG 20010904//EN"
 "http://www.w3.org/TR/2001/REC-SVG-20010904/DTD/svg10.dtd">
<svg version="1.0" xmlns="http://www.w3.org/2000/svg"
 width="500.000000pt" height="500.000000pt" viewBox="0 0 500.000000 500.000000"
 preserveAspectRatio="xMidYMid meet">

<g transform="translate(0.000000,500.000000) scale(0.100000,-0.100000)"
fill="#000000" stroke="none">
<path d="M2265 3846 l-80 -43 -7 -93 c-3 -52 -3 -103 2 -114 5 -12 43 -39 92
-64 l83 -42 88 45 87 46 0 109 0 110 -70 35 c-39 20 -75 33 -81 30 -5 -4 -8
-1 -7 6 6 26 -29 18 -107 -25z"/>
<path d="M1405 3417 l-80 -43 -3 -110 -3 -110 90 -47 89 -47 88 47 88 48 0
108 c0 59 -4 107 -8 106 -5 0 -12 4 -15 9 -6 10 -145 82 -158 82 -5 0 -44 -20
-88 -43z"/>
<path d="M3175 3448 c-11 -6 -23 -15 -26 -20 -3 -6 -9 -9 -13 -9 -3 1 -29 -10
-56 -24 l-50 -25 0 -108 0 -107 91 -48 90 -47 85 46 84 46 0 111 0 112 -80 43
c-86 45 -95 47 -125 30z m16 -35 c13 -16 12 -17 -3 -4 -17 13 -22 21 -14 21 2
0 10 -8 17 -17z"/>
<path d="M2170 3107 l-175 -90 1 -229 c1 -126 5 -233 10 -237 16 -14 349 -181
362 -181 7 0 93 41 192 90 l180 90 0 235 0 235 -180 90 c-99 49 -188 89 -197
88 -10 0 -97 -41 -193 -91z m558 -324 l2 -223 -180 -90 -179 -90 -180 88 -180
87 0 227 -1 228 178 89 177 89 180 -92 180 -91 3 -222z"/>
<path d="M2338 3029 c-19 -11 -25 -64 -8 -74 6 -4 10 -53 10 -116 l0 -109 -77
0 c-83 0 -92 16 -13 22 34 2 46 7 48 22 5 25 -14 36 -64 36 -56 0 -94 -30 -94
-75 0 -36 28 -65 62 -65 12 0 18 -8 18 -23 0 -13 9 -32 19 -41 11 -10 21 -30
23 -45 2 -18 13 -31 38 -43 24 -12 37 -26 40 -45 3 -19 12 -29 27 -31 18 -3
22 2 25 30 2 24 9 34 23 36 29 6 55 32 55 57 0 12 9 30 20 40 11 10 20 27 20
37 0 10 8 21 18 24 53 17 75 51 60 94 -12 35 -52 52 -109 48 -39 -3 -44 -6
-44 -28 0 -22 5 -25 45 -28 79 -6 70 -22 -13 -22 l-77 0 0 109 c0 63 4 112 10
116 18 11 11 64 -9 75 -24 12 -31 12 -53 -1z m52 -24 c10 -12 10 -19 2 -27 -8
-8 -12 -54 -12 -130 0 -98 -3 -118 -15 -118 -12 0 -15 20 -15 119 0 69 -4 122
-10 126 -13 8 6 45 24 45 8 0 19 -7 26 -15z m-105 -224 c3 -6 -17 -11 -47 -13
-49 -3 -53 -5 -53 -28 0 -18 6 -26 23 -28 30 -4 28 -22 -2 -22 -14 0 -32 10
-40 22 -20 29 -20 34 4 58 21 21 103 29 115 11z m275 -11 c24 -24 25 -43 4
-64 -12 -13 -41 -16 -147 -16 -73 0 -138 -4 -146 -9 -9 -6 -11 -19 -7 -42 l7
-34 -21 24 c-24 28 -24 31 -6 57 13 17 31 20 158 24 l143 5 0 25 c0 23 -4 25
-47 28 -61 4 -63 22 -3 22 32 0 51 -6 65 -20z m-220 -110 c0 -5 -13 -10 -30
-10 -16 0 -30 5 -30 10 0 6 14 10 30 10 17 0 30 -4 30 -10z m40 0 c0 -5 -7
-10 -16 -10 -8 0 -12 5 -9 10 3 6 10 10 16 10 5 0 9 -4 9 -10z m75 0 c4 -6 -8
-10 -30 -10 -22 0 -34 4 -30 10 3 6 17 10 30 10 13 0 27 -4 30 -10z m30 -30
c-15 -16 -31 -20 -89 -20 -79 0 -100 -8 -94 -36 2 -13 13 -20 33 -22 49 -6 54
-22 8 -22 -32 0 -46 5 -57 22 -20 29 -20 34 4 58 16 16 33 20 95 20 65 0 76 3
86 21 8 15 14 18 22 10 7 -7 5 -16 -8 -31z m-145 -50 c0 -5 -7 -10 -16 -10 -8
0 -12 5 -9 10 3 6 10 10 16 10 5 0 9 -4 9 -10z m35 0 c3 -5 -1 -10 -10 -10 -9
0 -13 5 -10 10 3 6 8 10 10 10 2 0 7 -4 10 -10z m40 0 c3 -5 -1 -10 -10 -10
-9 0 -13 5 -10 10 3 6 8 10 10 10 2 0 7 -4 10 -10z m30 -30 c-19 -21 -55 -27
-55 -10 0 6 7 10 15 10 8 0 19 9 26 21 8 15 14 18 22 10 7 -7 5 -16 -8 -31z
m-65 -71 c0 -10 -7 -19 -15 -19 -15 0 -21 31 -9 43 11 10 24 -3 24 -24z"/>
<path d="M2074 2995 c-10 -25 4 -45 30 -45 15 0 25 -7 29 -20 3 -13 14 -20 30
-20 16 0 26 -7 30 -20 4 -14 14 -20 34 -20 17 0 33 -8 41 -20 7 -11 20 -20 30
-20 16 1 16 1 0 14 -10 7 -18 21 -18 30 0 12 -10 16 -42 16 -33 0 -39 3 -30
12 20 20 14 28 -24 28 -31 0 -35 3 -29 20 6 18 2 20 -35 20 -25 0 -39 4 -35
10 3 6 44 10 90 10 l83 0 22 -37 c13 -21 25 -33 27 -26 4 12 -23 62 -42 75 -5
4 -50 8 -98 8 -69 0 -89 -3 -93 -15z"/>
<path d="M2445 2976 c-15 -20 -25 -41 -22 -48 2 -8 14 3 27 25 l22 37 89 0
c53 0 89 -4 89 -10 0 -5 -18 -10 -40 -10 -22 0 -40 -4 -40 -10 0 -5 5 -10 11
-10 5 0 7 -4 4 -10 -3 -5 -22 -10 -41 -10 -36 0 -42 -8 -22 -28 9 -9 3 -12
-30 -12 -32 0 -42 -4 -42 -16 0 -9 -8 -23 -17 -30 -17 -13 -17 -13 -1 -14 10
0 23 9 30 20 8 12 24 20 39 20 27 0 54 22 42 33 -3 4 5 7 20 7 14 0 32 8 39
19 7 10 22 20 33 22 14 3 20 12 20 29 0 25 -1 25 -92 28 l-91 3 -27 -35z"/>
<path d="M1472 2493 c-6 -2 -10 -9 -7 -14 4 -5 -2 -6 -11 -2 -12 4 -15 3 -10
-5 4 -7 2 -10 -6 -7 -7 3 -35 -8 -63 -23 l-50 -27 -3 -110 -2 -110 89 -46 89
-46 86 44 c66 35 86 50 87 67 0 11 1 61 1 110 l1 88 -83 44 c-81 43 -93 47
-118 37z"/>
<path d="M3113 2457 l-83 -42 3 -110 2 -110 88 -46 88 -45 85 43 84 44 0 112
0 112 -83 43 c-45 23 -86 42 -92 41 -5 0 -47 -19 -92 -42z"/>
<path d="M2260 2030 c-51 -30 -85 -55 -84 -65 0 -8 1 -57 2 -108 l2 -93 88
-43 88 -43 87 43 87 43 0 112 c0 93 -3 113 -16 118 -9 3 -21 3 -27 -1 -7 -3
-9 -2 -4 2 5 6 -127 88 -136 84 -1 0 -40 -23 -87 -49z m197 -35 c0 -8 -4 -12
-9 -9 -5 3 -6 10 -3 15 9 13 12 11 12 -6z"/>
</g>
</svg>
